<mxfile host="app.diagrams.net" agent="Mozilla/5.0 (Windows NT 10.0; Win64; x64) AppleWebKit/537.36 (KHTML, like Gecko) Chrome/133.0.0.0 Safari/537.36 Edg/133.0.0.0" version="26.0.16" pages="2">
  <diagram name="Página-1" id="Xv098V2aOTBT-dUrSFBb">
    <mxGraphModel dx="1666" dy="781" grid="1" gridSize="10" guides="1" tooltips="1" connect="1" arrows="1" fold="1" page="1" pageScale="1" pageWidth="827" pageHeight="1169" math="0" shadow="0">
      <root>
        <mxCell id="0" />
        <mxCell id="1" parent="0" />
        <mxCell id="dAd7lYZPXFyWrwmLLRgz-7" value="criar conta" style="ellipse;whiteSpace=wrap;html=1;fillColor=light-dark(#67AB9F,var(--ge-dark-color, #121212));" parent="1" vertex="1">
          <mxGeometry x="150" y="340" width="110" height="60" as="geometry" />
        </mxCell>
        <mxCell id="dAd7lYZPXFyWrwmLLRgz-13" value="Excluir tarefas" style="ellipse;whiteSpace=wrap;html=1;fillColor=light-dark(#67AB9F,var(--ge-dark-color, #121212));" parent="1" vertex="1">
          <mxGeometry x="250" y="440" width="110" height="60" as="geometry" />
        </mxCell>
        <mxCell id="dAd7lYZPXFyWrwmLLRgz-14" value="&amp;nbsp;atendimento de suporte" style="ellipse;whiteSpace=wrap;html=1;fillColor=light-dark(#67AB9F,var(--ge-dark-color, #121212));" parent="1" vertex="1">
          <mxGeometry x="710" y="250" width="110" height="60" as="geometry" />
        </mxCell>
        <mxCell id="dAd7lYZPXFyWrwmLLRgz-15" value="Marcar a conclusão de tarefas" style="ellipse;whiteSpace=wrap;html=1;fillColor=light-dark(#67AB9F,var(--ge-dark-color, #121212));" parent="1" vertex="1">
          <mxGeometry x="550" y="530" width="110" height="60" as="geometry" />
        </mxCell>
        <mxCell id="dAd7lYZPXFyWrwmLLRgz-16" value="backup de dados" style="ellipse;whiteSpace=wrap;html=1;fillColor=light-dark(#67AB9F,var(--ge-dark-color, #121212));" parent="1" vertex="1">
          <mxGeometry x="470" y="465" width="110" height="60" as="geometry" />
        </mxCell>
        <mxCell id="dAd7lYZPXFyWrwmLLRgz-17" value="Editar tarefas" style="ellipse;whiteSpace=wrap;html=1;fillColor=light-dark(#67AB9F,var(--ge-dark-color, #121212));" parent="1" vertex="1">
          <mxGeometry x="250" y="240" width="110" height="60" as="geometry" />
        </mxCell>
        <mxCell id="dAd7lYZPXFyWrwmLLRgz-18" value="Criar tarefas" style="ellipse;whiteSpace=wrap;html=1;fillColor=light-dark(#67AB9F,var(--ge-dark-color, #121212));" parent="1" vertex="1">
          <mxGeometry x="320" y="340" width="110" height="60" as="geometry" />
        </mxCell>
        <mxCell id="dAd7lYZPXFyWrwmLLRgz-19" value="" style="endArrow=classic;html=1;rounded=0;exitX=1;exitY=0.5;exitDx=0;exitDy=0;entryX=0;entryY=0.5;entryDx=0;entryDy=0;" parent="1" source="dAd7lYZPXFyWrwmLLRgz-7" target="dAd7lYZPXFyWrwmLLRgz-18" edge="1">
          <mxGeometry width="50" height="50" relative="1" as="geometry">
            <mxPoint x="280" y="370" as="sourcePoint" />
            <mxPoint x="350" y="370" as="targetPoint" />
          </mxGeometry>
        </mxCell>
        <mxCell id="dAd7lYZPXFyWrwmLLRgz-20" value="" style="endArrow=classic;html=1;rounded=0;entryX=0.673;entryY=0.017;entryDx=0;entryDy=0;entryPerimeter=0;" parent="1" target="dAd7lYZPXFyWrwmLLRgz-16" edge="1">
          <mxGeometry width="50" height="50" relative="1" as="geometry">
            <mxPoint x="690" y="400" as="sourcePoint" />
            <mxPoint x="650" y="250" as="targetPoint" />
          </mxGeometry>
        </mxCell>
        <mxCell id="dAd7lYZPXFyWrwmLLRgz-21" value="" style="endArrow=classic;html=1;rounded=0;entryX=0.727;entryY=0.933;entryDx=0;entryDy=0;entryPerimeter=0;" parent="1" source="dAd7lYZPXFyWrwmLLRgz-31" target="dAd7lYZPXFyWrwmLLRgz-32" edge="1">
          <mxGeometry width="50" height="50" relative="1" as="geometry">
            <mxPoint x="570" y="240" as="sourcePoint" />
            <mxPoint x="650" y="280" as="targetPoint" />
          </mxGeometry>
        </mxCell>
        <mxCell id="dAd7lYZPXFyWrwmLLRgz-22" value="" style="endArrow=classic;html=1;rounded=0;entryX=0.791;entryY=0.933;entryDx=0;entryDy=0;entryPerimeter=0;exitX=0.318;exitY=0.05;exitDx=0;exitDy=0;exitPerimeter=0;" parent="1" source="dAd7lYZPXFyWrwmLLRgz-18" target="dAd7lYZPXFyWrwmLLRgz-17" edge="1">
          <mxGeometry width="50" height="50" relative="1" as="geometry">
            <mxPoint x="380" y="340" as="sourcePoint" />
            <mxPoint x="460" y="240" as="targetPoint" />
          </mxGeometry>
        </mxCell>
        <mxCell id="dAd7lYZPXFyWrwmLLRgz-23" value="" style="endArrow=classic;html=1;rounded=0;entryX=0.755;entryY=0.017;entryDx=0;entryDy=0;entryPerimeter=0;" parent="1" source="dAd7lYZPXFyWrwmLLRgz-31" target="dAd7lYZPXFyWrwmLLRgz-15" edge="1">
          <mxGeometry width="50" height="50" relative="1" as="geometry">
            <mxPoint x="518.52" y="604" as="sourcePoint" />
            <mxPoint x="611.49" y="600" as="targetPoint" />
          </mxGeometry>
        </mxCell>
        <mxCell id="dAd7lYZPXFyWrwmLLRgz-24" value="" style="endArrow=classic;html=1;rounded=0;exitX=0.255;exitY=0.95;exitDx=0;exitDy=0;exitPerimeter=0;entryX=1;entryY=0;entryDx=0;entryDy=0;" parent="1" source="dAd7lYZPXFyWrwmLLRgz-13" target="dAd7lYZPXFyWrwmLLRgz-34" edge="1">
          <mxGeometry width="50" height="50" relative="1" as="geometry">
            <mxPoint x="389" y="560" as="sourcePoint" />
            <mxPoint x="439" y="510" as="targetPoint" />
            <Array as="points" />
          </mxGeometry>
        </mxCell>
        <mxCell id="dAd7lYZPXFyWrwmLLRgz-25" value="" style="endArrow=classic;html=1;rounded=0;entryX=0.5;entryY=1;entryDx=0;entryDy=0;" parent="1" source="dAd7lYZPXFyWrwmLLRgz-31" target="dAd7lYZPXFyWrwmLLRgz-14" edge="1">
          <mxGeometry width="50" height="50" relative="1" as="geometry">
            <mxPoint x="670" y="270" as="sourcePoint" />
            <mxPoint x="720" y="220" as="targetPoint" />
          </mxGeometry>
        </mxCell>
        <mxCell id="dAd7lYZPXFyWrwmLLRgz-26" value="" style="endArrow=classic;html=1;rounded=0;entryX=0;entryY=0.7;entryDx=0;entryDy=0;entryPerimeter=0;" parent="1" source="dAd7lYZPXFyWrwmLLRgz-30" target="dAd7lYZPXFyWrwmLLRgz-7" edge="1">
          <mxGeometry width="50" height="50" relative="1" as="geometry">
            <mxPoint x="180" y="334.090909090909" as="sourcePoint" />
            <mxPoint x="90" y="330" as="targetPoint" />
          </mxGeometry>
        </mxCell>
        <mxCell id="dAd7lYZPXFyWrwmLLRgz-27" value="" style="endArrow=classic;html=1;rounded=0;exitX=0.3;exitY=0.117;exitDx=0;exitDy=0;entryX=0.882;entryY=0.75;entryDx=0;entryDy=0;entryPerimeter=0;exitPerimeter=0;" parent="1" source="dAd7lYZPXFyWrwmLLRgz-17" target="dAd7lYZPXFyWrwmLLRgz-35" edge="1">
          <mxGeometry width="50" height="50" relative="1" as="geometry">
            <mxPoint x="310" y="220" as="sourcePoint" />
            <mxPoint x="360" y="170" as="targetPoint" />
          </mxGeometry>
        </mxCell>
        <mxCell id="dAd7lYZPXFyWrwmLLRgz-28" value="" style="endArrow=classic;html=1;rounded=0;entryX=0.064;entryY=0.333;entryDx=0;entryDy=0;entryPerimeter=0;" parent="1" source="dAd7lYZPXFyWrwmLLRgz-31" target="dAd7lYZPXFyWrwmLLRgz-33" edge="1">
          <mxGeometry width="50" height="50" relative="1" as="geometry">
            <mxPoint x="260" y="550" as="sourcePoint" />
            <mxPoint x="310" y="500" as="targetPoint" />
          </mxGeometry>
        </mxCell>
        <mxCell id="dAd7lYZPXFyWrwmLLRgz-29" value="" style="endArrow=classic;html=1;rounded=0;entryX=0.955;entryY=0.233;entryDx=0;entryDy=0;entryPerimeter=0;" parent="1" source="dAd7lYZPXFyWrwmLLRgz-18" target="dAd7lYZPXFyWrwmLLRgz-13" edge="1">
          <mxGeometry width="50" height="50" relative="1" as="geometry">
            <mxPoint x="390" y="410" as="sourcePoint" />
            <mxPoint x="310" y="460" as="targetPoint" />
          </mxGeometry>
        </mxCell>
        <mxCell id="dAd7lYZPXFyWrwmLLRgz-30" value="usuário" style="shape=umlActor;verticalLabelPosition=bottom;verticalAlign=top;html=1;outlineConnect=0;" parent="1" vertex="1">
          <mxGeometry x="40" y="350" width="40" height="70" as="geometry" />
        </mxCell>
        <mxCell id="dAd7lYZPXFyWrwmLLRgz-31" value="Sistema" style="shape=umlActor;verticalLabelPosition=bottom;verticalAlign=top;html=1;outlineConnect=0;" parent="1" vertex="1">
          <mxGeometry x="680" y="330" width="40" height="70" as="geometry" />
        </mxCell>
        <mxCell id="dAd7lYZPXFyWrwmLLRgz-32" value="Alertar sobre prazos" style="ellipse;whiteSpace=wrap;html=1;fillColor=light-dark(#67AB9F,var(--ge-dark-color, #121212));" parent="1" vertex="1">
          <mxGeometry x="560" y="250" width="110" height="60" as="geometry" />
        </mxCell>
        <mxCell id="dAd7lYZPXFyWrwmLLRgz-33" value="Enviar notificações" style="ellipse;whiteSpace=wrap;html=1;fillColor=light-dark(#67AB9F,var(--ge-dark-color, #121212));" parent="1" vertex="1">
          <mxGeometry x="510" y="350" width="110" height="60" as="geometry" />
        </mxCell>
        <mxCell id="dAd7lYZPXFyWrwmLLRgz-34" value="administrar progresso de tarefas" style="ellipse;whiteSpace=wrap;html=1;fillColor=light-dark(#67AB9F,var(--ge-dark-color, #121212));" parent="1" vertex="1">
          <mxGeometry x="140" y="525" width="110" height="60" as="geometry" />
        </mxCell>
        <mxCell id="dAd7lYZPXFyWrwmLLRgz-35" value="copiar e colar texto" style="ellipse;whiteSpace=wrap;html=1;fillColor=light-dark(#67AB9F,var(--ge-dark-color, #121212));" parent="1" vertex="1">
          <mxGeometry x="130" y="170" width="110" height="60" as="geometry" />
        </mxCell>
        <mxCell id="dAd7lYZPXFyWrwmLLRgz-38" value="Fazer relatório mensal de desempenho&amp;nbsp;" style="ellipse;whiteSpace=wrap;html=1;fillColor=light-dark(#67AB9F,var(--ge-dark-color, #121212));" parent="1" vertex="1">
          <mxGeometry x="680" y="490" width="110" height="60" as="geometry" />
        </mxCell>
        <mxCell id="dAd7lYZPXFyWrwmLLRgz-39" value="" style="endArrow=classic;html=1;rounded=0;entryX=0.5;entryY=0;entryDx=0;entryDy=0;" parent="1" source="dAd7lYZPXFyWrwmLLRgz-31" target="dAd7lYZPXFyWrwmLLRgz-38" edge="1">
          <mxGeometry width="50" height="50" relative="1" as="geometry">
            <mxPoint x="730" y="390" as="sourcePoint" />
            <mxPoint x="720" y="500" as="targetPoint" />
          </mxGeometry>
        </mxCell>
        <mxCell id="dAd7lYZPXFyWrwmLLRgz-40" value="solicitar suporte" style="ellipse;whiteSpace=wrap;html=1;fillColor=light-dark(#67AB9F,var(--ge-dark-color, #121212));" parent="1" vertex="1">
          <mxGeometry x="280" y="110" width="110" height="60" as="geometry" />
        </mxCell>
        <mxCell id="dAd7lYZPXFyWrwmLLRgz-41" value="" style="endArrow=classic;html=1;rounded=0;exitX=0.936;exitY=0.233;exitDx=0;exitDy=0;exitPerimeter=0;entryX=0;entryY=1;entryDx=0;entryDy=0;" parent="1" source="dAd7lYZPXFyWrwmLLRgz-35" target="dAd7lYZPXFyWrwmLLRgz-40" edge="1">
          <mxGeometry width="50" height="50" relative="1" as="geometry">
            <mxPoint x="290" y="190" as="sourcePoint" />
            <mxPoint x="340" y="140" as="targetPoint" />
          </mxGeometry>
        </mxCell>
        <mxCell id="aoA1-RP-P0AGy-z7IN9Q-12" value="Colocar prazo" style="ellipse;whiteSpace=wrap;html=1;fillColor=light-dark(#67AB9F,var(--ge-dark-color, #121212));" vertex="1" parent="1">
          <mxGeometry x="210" y="630" width="110" height="60" as="geometry" />
        </mxCell>
        <mxCell id="aoA1-RP-P0AGy-z7IN9Q-13" value="" style="endArrow=classic;html=1;rounded=0;exitX=0.5;exitY=1;exitDx=0;exitDy=0;entryX=0;entryY=0;entryDx=0;entryDy=0;" edge="1" parent="1" source="dAd7lYZPXFyWrwmLLRgz-34" target="aoA1-RP-P0AGy-z7IN9Q-12">
          <mxGeometry width="50" height="50" relative="1" as="geometry">
            <mxPoint x="260" y="600" as="sourcePoint" />
            <mxPoint x="230" y="630" as="targetPoint" />
          </mxGeometry>
        </mxCell>
      </root>
    </mxGraphModel>
  </diagram>
  <diagram id="cJii3cMwRpEcBhcQLnMu" name="Página-2">
    <mxGraphModel dx="1666" dy="781" grid="1" gridSize="10" guides="1" tooltips="1" connect="1" arrows="1" fold="1" page="1" pageScale="1" pageWidth="827" pageHeight="1169" math="0" shadow="0">
      <root>
        <mxCell id="0" />
        <mxCell id="1" parent="0" />
        <mxCell id="LzQTR3aQKiZwQsZ7LHm5-1" value="&lt;p style=&quot;margin:0px;margin-top:4px;text-align:center;&quot;&gt;&lt;b&gt;Usuário&lt;/b&gt;&lt;/p&gt;&lt;hr size=&quot;1&quot; style=&quot;border-style:solid;&quot;&gt;&lt;p style=&quot;margin:0px;margin-left:4px;&quot;&gt;+ CPF: String&lt;br&gt;+ Nome: String&lt;br&gt;+Idade: Int&lt;/p&gt;&lt;p style=&quot;margin:0px;margin-left:4px;&quot;&gt;+Email: String&lt;br&gt;+Senha: String&lt;/p&gt;&lt;hr size=&quot;1&quot; style=&quot;border-style:solid;&quot;&gt;&lt;p style=&quot;margin:0px;margin-left:4px;&quot;&gt;+ criarConta()&lt;br&gt;+ criarTarefa()&lt;/p&gt;" style="verticalAlign=top;align=left;overflow=fill;html=1;whiteSpace=wrap;" vertex="1" parent="1">
          <mxGeometry x="300" y="80" width="160" height="170" as="geometry" />
        </mxCell>
        <mxCell id="yuAvbkhOD4qIezUwVSjb-2" value="&lt;p style=&quot;margin:0px;margin-top:4px;text-align:center;&quot;&gt;&lt;b&gt;Tarefa&lt;/b&gt;&lt;/p&gt;&lt;hr size=&quot;1&quot; style=&quot;border-style:solid;&quot;&gt;&lt;p style=&quot;margin:0px;margin-left:4px;&quot;&gt;+nome: Type&lt;br&gt;+ID: string&lt;/p&gt;&lt;p style=&quot;margin:0px;margin-left:4px;&quot;&gt;+prazo: Date&lt;/p&gt;&lt;p style=&quot;margin:0px;margin-left:4px;&quot;&gt;+Status: string&lt;/p&gt;&lt;p style=&quot;margin:0px;margin-left:4px;&quot;&gt;+Descrição: string&lt;/p&gt;&lt;p style=&quot;margin:0px;margin-left:4px;&quot;&gt;+Progresso:boolean&lt;/p&gt;&lt;hr size=&quot;1&quot; style=&quot;border-style:solid;&quot;&gt;&lt;p style=&quot;margin:0px;margin-left:4px;&quot;&gt;+ criarTarefa()&lt;/p&gt;&lt;p style=&quot;margin:0px;margin-left:4px;&quot;&gt;&lt;span style=&quot;background-color: transparent; color: light-dark(rgb(0, 0, 0), rgb(255, 255, 255));&quot;&gt;+ administrarTarefas()&lt;/span&gt;&lt;/p&gt;&lt;p style=&quot;margin:0px;margin-left:4px;&quot;&gt;+&lt;/p&gt;" style="verticalAlign=top;align=left;overflow=fill;html=1;whiteSpace=wrap;" vertex="1" parent="1">
          <mxGeometry x="681" y="80" width="160" height="210" as="geometry" />
        </mxCell>
        <mxCell id="yuAvbkhOD4qIezUwVSjb-3" style="edgeStyle=orthogonalEdgeStyle;rounded=0;orthogonalLoop=1;jettySize=auto;html=1;entryX=0.013;entryY=0.644;entryDx=0;entryDy=0;entryPerimeter=0;" edge="1" parent="1" source="LzQTR3aQKiZwQsZ7LHm5-1" target="yuAvbkhOD4qIezUwVSjb-2">
          <mxGeometry relative="1" as="geometry" />
        </mxCell>
      </root>
    </mxGraphModel>
  </diagram>
</mxfile>
